<?xml version="1.0" encoding="UTF-8"?>
<svg version="1.1" viewBox="0 0 896 930" width="1280" height="1280" xmlns="http://www.w3.org/2000/svg">
<path transform="translate(424,138)" d="m0 0h38l29 3 31 6 27 8 26 10 23 11 22 13 16 11 13 10 13 11 15 14 14 15 10 13v2l-48 16-43 14-27 9h-3v2l6 2 32 16-2 4-12 12-8 7-117 117-8 7-26 26-3-1-7-8-14-14-7-8-14-14-7-8-14-14-7-8-13-13-4 2-11 11-8 7-121 121-8 7-50 50-3-3-12-25-9-25-7-28-4-24-2-22v-38l3-29 5-26 7-26 9-24 11-24 12-21 10-15 9-12 9-11 18-20 8-8 8-7 13-11 16-12 17-11 16-9 15-8 24-10 24-8 25-6 24-4z" fill="#fff"/>
<path transform="translate(704,271)" d="m0 0 4 2 10 13 10 15 12 21 10 22 8 22 6 22 5 26 3 29v38l-3 29-6 31-7 24-8 22-9 20-12 23-16 24-10 13-11 13-12 13-7 7-8 7-16 13-16 11h-2l-1-318-10 9-64 64-1 2-1 281-3 6-13 4h-3v-271l-8 7-37 37-8 7-19 19-4 8-1 204h-19l-1-206-4-6-31-31-8-7-33-33-1 270-2 1-11-3-5-4-1-4-1-244-10 9-43 43-8 7-12 12-2 3-1 136-5-2-14-11-11-9-10-9-8-7-12-12-7-8-12-15-11-16 1-4 13-12 91-91 8-7 70-70 4 2 46 46 8 7 31 31 4-1 89-89 8-7 90-90 7-6h2l18 36 1 1 37-111z" fill="#fff"/>
</svg>
